<mxfile host="Electron" modified="2024-02-13T17:44:48.913Z" agent="Mozilla/5.0 (Windows NT 10.0; Win64; x64) AppleWebKit/537.36 (KHTML, like Gecko) draw.io/23.0.2 Chrome/120.0.6099.109 Electron/28.1.0 Safari/537.36" etag="-8f5l9ukdYI4duT6GCro" version="23.0.2" type="device" pages="2">
  <diagram name="Page-1" id="WZxAslAx6anpdPMcOtVC">
    <mxGraphModel dx="1877" dy="621" grid="1" gridSize="10" guides="1" tooltips="1" connect="1" arrows="1" fold="1" page="1" pageScale="1" pageWidth="827" pageHeight="1169" math="0" shadow="0">
      <root>
        <mxCell id="0" />
        <mxCell id="1" parent="0" />
        <mxCell id="g2Wz32G-g4UVux2b0yr--1" value="" style="rounded=0;whiteSpace=wrap;html=1;strokeWidth=1;fontStyle=0" parent="1" vertex="1">
          <mxGeometry x="-820" y="70" width="210" height="60" as="geometry" />
        </mxCell>
        <mxCell id="g2Wz32G-g4UVux2b0yr--2" value="" style="endArrow=classic;html=1;rounded=0;exitX=1;exitY=0.167;exitDx=0;exitDy=0;exitPerimeter=0;strokeWidth=1;fontStyle=0" parent="1" edge="1">
          <mxGeometry width="50" height="50" relative="1" as="geometry">
            <mxPoint x="-609.9999999999999" y="90.02000000000004" as="sourcePoint" />
            <mxPoint x="-460" y="90" as="targetPoint" />
          </mxGeometry>
        </mxCell>
        <mxCell id="g2Wz32G-g4UVux2b0yr--3" value="" style="endArrow=classic;html=1;rounded=0;strokeWidth=1;fontStyle=0" parent="1" edge="1">
          <mxGeometry width="50" height="50" relative="1" as="geometry">
            <mxPoint x="-451" y="114.36000000000001" as="sourcePoint" />
            <mxPoint x="-609" y="114.31" as="targetPoint" />
          </mxGeometry>
        </mxCell>
        <mxCell id="g2Wz32G-g4UVux2b0yr--4" value="" style="ellipse;whiteSpace=wrap;html=1;aspect=fixed;strokeWidth=1;fontStyle=0" parent="1" vertex="1">
          <mxGeometry x="-460" y="50" width="90" height="90" as="geometry" />
        </mxCell>
        <mxCell id="g2Wz32G-g4UVux2b0yr--6" value="1.0" style="text;html=1;strokeColor=none;fillColor=none;align=center;verticalAlign=middle;whiteSpace=wrap;rounded=0;strokeWidth=1;fontStyle=0" parent="1" vertex="1">
          <mxGeometry x="-445" y="50" width="60" height="30" as="geometry" />
        </mxCell>
        <mxCell id="g2Wz32G-g4UVux2b0yr--8" value="" style="endArrow=classic;html=1;rounded=0;strokeWidth=1;fontStyle=0;exitX=0.994;exitY=0.437;exitDx=0;exitDy=0;exitPerimeter=0;" parent="1" source="g2Wz32G-g4UVux2b0yr--4" edge="1">
          <mxGeometry width="50" height="50" relative="1" as="geometry">
            <mxPoint x="-367" y="90.00428571428577" as="sourcePoint" />
            <mxPoint x="-217" y="90.00428571428577" as="targetPoint" />
          </mxGeometry>
        </mxCell>
        <mxCell id="g2Wz32G-g4UVux2b0yr--9" value="" style="endArrow=classic;html=1;rounded=0;strokeWidth=1;fontStyle=0;entryX=0.952;entryY=0.711;entryDx=0;entryDy=0;entryPerimeter=0;" parent="1" target="g2Wz32G-g4UVux2b0yr--4" edge="1">
          <mxGeometry width="50" height="50" relative="1" as="geometry">
            <mxPoint x="-252" y="114.31428571428577" as="sourcePoint" />
            <mxPoint x="-370" y="114" as="targetPoint" />
            <Array as="points">
              <mxPoint x="-212" y="114.31428571428577" />
            </Array>
          </mxGeometry>
        </mxCell>
        <mxCell id="g2Wz32G-g4UVux2b0yr--10" value="" style="endArrow=none;html=1;rounded=0;strokeWidth=1;fontStyle=0" parent="1" edge="1">
          <mxGeometry width="50" height="50" relative="1" as="geometry">
            <mxPoint x="-200" y="120" as="sourcePoint" />
            <mxPoint x="-80" y="120" as="targetPoint" />
          </mxGeometry>
        </mxCell>
        <mxCell id="g2Wz32G-g4UVux2b0yr--11" value="" style="endArrow=none;html=1;rounded=0;strokeWidth=1;fontStyle=0" parent="1" edge="1">
          <mxGeometry width="50" height="50" relative="1" as="geometry">
            <mxPoint x="-200" y="79" as="sourcePoint" />
            <mxPoint x="-80" y="80" as="targetPoint" />
          </mxGeometry>
        </mxCell>
        <mxCell id="g2Wz32G-g4UVux2b0yr--12" value="Login Master" style="text;html=1;strokeColor=none;fillColor=none;align=center;verticalAlign=middle;whiteSpace=wrap;rounded=0;strokeWidth=1;fontStyle=0" parent="1" vertex="1">
          <mxGeometry x="-180" y="85" width="90" height="30" as="geometry" />
        </mxCell>
        <mxCell id="g2Wz32G-g4UVux2b0yr--13" value="USER" style="text;html=1;strokeColor=none;fillColor=none;align=center;verticalAlign=middle;whiteSpace=wrap;rounded=0;strokeWidth=1;fontStyle=0" parent="1" vertex="1">
          <mxGeometry x="-740" y="85" width="60" height="30" as="geometry" />
        </mxCell>
        <mxCell id="g2Wz32G-g4UVux2b0yr--14" value="" style="edgeStyle=segmentEdgeStyle;endArrow=classic;html=1;curved=0;rounded=0;endSize=8;startSize=8;exitX=0.06;exitY=0.8;exitDx=0;exitDy=0;exitPerimeter=0;strokeWidth=1;fontStyle=0" parent="1" edge="1">
          <mxGeometry width="50" height="50" relative="1" as="geometry">
            <mxPoint x="-457" y="240" as="sourcePoint" />
            <mxPoint x="-638" y="130" as="targetPoint" />
            <Array as="points">
              <mxPoint x="-638" y="240" />
            </Array>
          </mxGeometry>
        </mxCell>
        <mxCell id="g2Wz32G-g4UVux2b0yr--15" value="" style="endArrow=classic;html=1;rounded=0;strokeWidth=1;fontStyle=0" parent="1" edge="1">
          <mxGeometry width="50" height="50" relative="1" as="geometry">
            <mxPoint x="-620" y="200" as="sourcePoint" />
            <mxPoint x="-465" y="200" as="targetPoint" />
          </mxGeometry>
        </mxCell>
        <mxCell id="g2Wz32G-g4UVux2b0yr--16" value="" style="endArrow=none;html=1;rounded=0;strokeWidth=1;fontStyle=0" parent="1" edge="1">
          <mxGeometry width="50" height="50" relative="1" as="geometry">
            <mxPoint x="-620" y="200" as="sourcePoint" />
            <mxPoint x="-620" y="130" as="targetPoint" />
          </mxGeometry>
        </mxCell>
        <mxCell id="g2Wz32G-g4UVux2b0yr--17" value="" style="ellipse;whiteSpace=wrap;html=1;aspect=fixed;strokeWidth=1;fontStyle=0" parent="1" vertex="1">
          <mxGeometry x="-465" y="160" width="100" height="100" as="geometry" />
        </mxCell>
        <mxCell id="g2Wz32G-g4UVux2b0yr--18" value="" style="endArrow=none;html=1;rounded=0;strokeWidth=1;fontStyle=0" parent="1" edge="1">
          <mxGeometry width="50" height="50" relative="1" as="geometry">
            <mxPoint x="-460" y="192" as="sourcePoint" />
            <mxPoint x="-370" y="192" as="targetPoint" />
          </mxGeometry>
        </mxCell>
        <mxCell id="g2Wz32G-g4UVux2b0yr--19" value="2.0" style="text;html=1;strokeColor=none;fillColor=none;align=center;verticalAlign=middle;whiteSpace=wrap;rounded=0;strokeWidth=1;fontStyle=0" parent="1" vertex="1">
          <mxGeometry x="-445" y="161" width="60" height="30" as="geometry" />
        </mxCell>
        <mxCell id="g2Wz32G-g4UVux2b0yr--20" value="View&amp;nbsp;&lt;br&gt;Product" style="text;html=1;strokeColor=none;fillColor=none;align=center;verticalAlign=middle;whiteSpace=wrap;rounded=0;strokeWidth=1;fontStyle=0" parent="1" vertex="1">
          <mxGeometry x="-443" y="206" width="60" height="30" as="geometry" />
        </mxCell>
        <mxCell id="g2Wz32G-g4UVux2b0yr--21" value="" style="endArrow=classic;html=1;rounded=0;strokeWidth=1;fontStyle=0" parent="1" edge="1">
          <mxGeometry width="50" height="50" relative="1" as="geometry">
            <mxPoint x="-365" y="200" as="sourcePoint" />
            <mxPoint x="-215" y="200" as="targetPoint" />
          </mxGeometry>
        </mxCell>
        <mxCell id="g2Wz32G-g4UVux2b0yr--22" value="" style="endArrow=classic;html=1;rounded=0;strokeWidth=1;fontStyle=0" parent="1" edge="1">
          <mxGeometry width="50" height="50" relative="1" as="geometry">
            <mxPoint x="-253" y="240" as="sourcePoint" />
            <mxPoint x="-373" y="240" as="targetPoint" />
            <Array as="points">
              <mxPoint x="-213" y="240" />
            </Array>
          </mxGeometry>
        </mxCell>
        <mxCell id="g2Wz32G-g4UVux2b0yr--23" value="" style="endArrow=none;html=1;rounded=0;strokeWidth=1;fontStyle=0" parent="1" edge="1">
          <mxGeometry width="50" height="50" relative="1" as="geometry">
            <mxPoint x="-200" y="239" as="sourcePoint" />
            <mxPoint x="-80" y="239" as="targetPoint" />
          </mxGeometry>
        </mxCell>
        <mxCell id="g2Wz32G-g4UVux2b0yr--24" value="" style="endArrow=none;html=1;rounded=0;strokeWidth=1;fontStyle=0" parent="1" edge="1">
          <mxGeometry width="50" height="50" relative="1" as="geometry">
            <mxPoint x="-200" y="198" as="sourcePoint" />
            <mxPoint x="-80" y="199" as="targetPoint" />
          </mxGeometry>
        </mxCell>
        <mxCell id="g2Wz32G-g4UVux2b0yr--25" value="Product Master" style="text;html=1;strokeColor=none;fillColor=none;align=center;verticalAlign=middle;whiteSpace=wrap;rounded=0;strokeWidth=1;fontStyle=0" parent="1" vertex="1">
          <mxGeometry x="-185" y="206" width="90" height="30" as="geometry" />
        </mxCell>
        <mxCell id="g2Wz32G-g4UVux2b0yr--26" value="" style="endArrow=classic;html=1;rounded=0;strokeWidth=1;fontStyle=0" parent="1" edge="1">
          <mxGeometry width="50" height="50" relative="1" as="geometry">
            <mxPoint x="-660" y="320" as="sourcePoint" />
            <mxPoint x="-465" y="320" as="targetPoint" />
          </mxGeometry>
        </mxCell>
        <mxCell id="g2Wz32G-g4UVux2b0yr--27" value="" style="ellipse;whiteSpace=wrap;html=1;aspect=fixed;strokeWidth=1;fontStyle=0" parent="1" vertex="1">
          <mxGeometry x="-465" y="280" width="100" height="100" as="geometry" />
        </mxCell>
        <mxCell id="g2Wz32G-g4UVux2b0yr--28" value="" style="endArrow=none;html=1;rounded=0;strokeWidth=1;fontStyle=0;entryX=0.966;entryY=0.335;entryDx=0;entryDy=0;entryPerimeter=0;exitX=0.05;exitY=0.33;exitDx=0;exitDy=0;exitPerimeter=0;" parent="1" source="g2Wz32G-g4UVux2b0yr--27" target="g2Wz32G-g4UVux2b0yr--27" edge="1">
          <mxGeometry width="50" height="50" relative="1" as="geometry">
            <mxPoint x="-460" y="313" as="sourcePoint" />
            <mxPoint x="-370" y="313" as="targetPoint" />
          </mxGeometry>
        </mxCell>
        <mxCell id="g2Wz32G-g4UVux2b0yr--29" value="Place&lt;br&gt;Order" style="text;html=1;strokeColor=none;fillColor=none;align=center;verticalAlign=middle;whiteSpace=wrap;rounded=0;strokeWidth=1;fontStyle=0" parent="1" vertex="1">
          <mxGeometry x="-445" y="329" width="60" height="30" as="geometry" />
        </mxCell>
        <mxCell id="g2Wz32G-g4UVux2b0yr--30" value="" style="endArrow=classic;html=1;rounded=0;entryX=0;entryY=0;entryDx=0;entryDy=0;strokeWidth=1;fontStyle=0;exitX=0.997;exitY=0.403;exitDx=0;exitDy=0;exitPerimeter=0;" parent="1" source="g2Wz32G-g4UVux2b0yr--27" target="g2Wz32G-g4UVux2b0yr--34" edge="1">
          <mxGeometry width="50" height="50" relative="1" as="geometry">
            <mxPoint x="-200" y="260" as="sourcePoint" />
            <mxPoint x="-365" y="400" as="targetPoint" />
          </mxGeometry>
        </mxCell>
        <mxCell id="g2Wz32G-g4UVux2b0yr--32" value="" style="endArrow=none;html=1;rounded=0;strokeWidth=1;fontStyle=0" parent="1" edge="1">
          <mxGeometry width="50" height="50" relative="1" as="geometry">
            <mxPoint x="-200" y="430" as="sourcePoint" />
            <mxPoint x="-80" y="430" as="targetPoint" />
          </mxGeometry>
        </mxCell>
        <mxCell id="g2Wz32G-g4UVux2b0yr--33" value="" style="endArrow=none;html=1;rounded=0;strokeWidth=1;fontStyle=0" parent="1" edge="1">
          <mxGeometry width="50" height="50" relative="1" as="geometry">
            <mxPoint x="-200" y="380" as="sourcePoint" />
            <mxPoint x="-80" y="381" as="targetPoint" />
          </mxGeometry>
        </mxCell>
        <mxCell id="g2Wz32G-g4UVux2b0yr--34" value="Order Master" style="text;html=1;strokeColor=none;fillColor=none;align=center;verticalAlign=middle;whiteSpace=wrap;rounded=0;strokeWidth=1;fontStyle=0" parent="1" vertex="1">
          <mxGeometry x="-200" y="389" width="110" height="30" as="geometry" />
        </mxCell>
        <mxCell id="g2Wz32G-g4UVux2b0yr--35" value="" style="edgeStyle=segmentEdgeStyle;endArrow=classic;html=1;curved=0;rounded=0;endSize=8;startSize=8;exitX=0.05;exitY=0.8;exitDx=0;exitDy=0;exitPerimeter=0;strokeWidth=1;fontStyle=0" parent="1" edge="1">
          <mxGeometry width="50" height="50" relative="1" as="geometry">
            <mxPoint x="-456" y="360" as="sourcePoint" />
            <mxPoint x="-679" y="130" as="targetPoint" />
          </mxGeometry>
        </mxCell>
        <mxCell id="g2Wz32G-g4UVux2b0yr--36" value="" style="endArrow=none;html=1;rounded=0;strokeWidth=1;fontStyle=0" parent="1" edge="1">
          <mxGeometry width="50" height="50" relative="1" as="geometry">
            <mxPoint x="-660" y="320" as="sourcePoint" />
            <mxPoint x="-660" y="130" as="targetPoint" />
          </mxGeometry>
        </mxCell>
        <mxCell id="g2Wz32G-g4UVux2b0yr--37" value="" style="edgeStyle=segmentEdgeStyle;endArrow=classic;html=1;curved=0;rounded=0;endSize=8;startSize=8;exitX=0.091;exitY=0.756;exitDx=0;exitDy=0;exitPerimeter=0;strokeWidth=1;fontStyle=0" parent="1" source="g2Wz32G-g4UVux2b0yr--40" edge="1">
          <mxGeometry width="50" height="50" relative="1" as="geometry">
            <mxPoint x="-465" y="480" as="sourcePoint" />
            <mxPoint x="-720" y="130" as="targetPoint" />
            <Array as="points">
              <mxPoint x="-720" y="479" />
            </Array>
          </mxGeometry>
        </mxCell>
        <mxCell id="g2Wz32G-g4UVux2b0yr--38" value="" style="endArrow=none;html=1;rounded=0;strokeWidth=1;fontStyle=0" parent="1" edge="1">
          <mxGeometry width="50" height="50" relative="1" as="geometry">
            <mxPoint x="-700" y="440" as="sourcePoint" />
            <mxPoint x="-700" y="130" as="targetPoint" />
          </mxGeometry>
        </mxCell>
        <mxCell id="g2Wz32G-g4UVux2b0yr--39" value="" style="endArrow=classic;html=1;rounded=0;strokeWidth=1;fontStyle=0" parent="1" edge="1">
          <mxGeometry width="50" height="50" relative="1" as="geometry">
            <mxPoint x="-700" y="440" as="sourcePoint" />
            <mxPoint x="-465" y="440" as="targetPoint" />
          </mxGeometry>
        </mxCell>
        <mxCell id="g2Wz32G-g4UVux2b0yr--40" value="" style="ellipse;whiteSpace=wrap;html=1;aspect=fixed;strokeWidth=1;fontStyle=0" parent="1" vertex="1">
          <mxGeometry x="-465" y="400" width="105" height="105" as="geometry" />
        </mxCell>
        <mxCell id="g2Wz32G-g4UVux2b0yr--41" value="" style="endArrow=classic;html=1;rounded=0;strokeWidth=1;fontStyle=0;exitX=0.994;exitY=0.427;exitDx=0;exitDy=0;exitPerimeter=0;" parent="1" source="g2Wz32G-g4UVux2b0yr--40" edge="1">
          <mxGeometry width="50" height="50" relative="1" as="geometry">
            <mxPoint x="-350" y="440" as="sourcePoint" />
            <mxPoint x="-210" y="410" as="targetPoint" />
          </mxGeometry>
        </mxCell>
        <mxCell id="g2Wz32G-g4UVux2b0yr--46" value="" style="endArrow=none;html=1;rounded=0;entryX=0.966;entryY=0.377;entryDx=0;entryDy=0;entryPerimeter=0;exitX=0.032;exitY=0.389;exitDx=0;exitDy=0;exitPerimeter=0;strokeWidth=1;fontStyle=0" parent="1" edge="1">
          <mxGeometry width="50" height="50" relative="1" as="geometry">
            <mxPoint x="-461.64" y="436.845" as="sourcePoint" />
            <mxPoint x="-363.57000000000005" y="435.58500000000004" as="targetPoint" />
          </mxGeometry>
        </mxCell>
        <mxCell id="g2Wz32G-g4UVux2b0yr--47" value="3.0" style="text;html=1;strokeColor=none;fillColor=none;align=center;verticalAlign=middle;whiteSpace=wrap;rounded=0;strokeWidth=1;fontStyle=0" parent="1" vertex="1">
          <mxGeometry x="-445" y="284" width="60" height="30" as="geometry" />
        </mxCell>
        <mxCell id="g2Wz32G-g4UVux2b0yr--48" value="View&lt;br&gt;Order" style="text;html=1;strokeColor=none;fillColor=none;align=center;verticalAlign=middle;whiteSpace=wrap;rounded=0;strokeWidth=1;fontStyle=0" parent="1" vertex="1">
          <mxGeometry x="-443.12" y="450" width="60" height="30" as="geometry" />
        </mxCell>
        <mxCell id="g2Wz32G-g4UVux2b0yr--49" value="4.0" style="text;html=1;strokeColor=none;fillColor=none;align=center;verticalAlign=middle;whiteSpace=wrap;rounded=0;strokeWidth=1;fontStyle=0" parent="1" vertex="1">
          <mxGeometry x="-445" y="409" width="60" height="20" as="geometry" />
        </mxCell>
        <mxCell id="g2Wz32G-g4UVux2b0yr--50" value="" style="ellipse;whiteSpace=wrap;html=1;aspect=fixed;strokeWidth=1;fontStyle=0" parent="1" vertex="1">
          <mxGeometry x="-467.5" y="520" width="105" height="105" as="geometry" />
        </mxCell>
        <mxCell id="g2Wz32G-g4UVux2b0yr--51" value="" style="endArrow=none;html=1;rounded=0;entryX=0.966;entryY=0.377;entryDx=0;entryDy=0;entryPerimeter=0;exitX=0.032;exitY=0.389;exitDx=0;exitDy=0;exitPerimeter=0;strokeWidth=1;fontStyle=0" parent="1" edge="1">
          <mxGeometry width="50" height="50" relative="1" as="geometry">
            <mxPoint x="-464" y="551" as="sourcePoint" />
            <mxPoint x="-366" y="550" as="targetPoint" />
          </mxGeometry>
        </mxCell>
        <mxCell id="g2Wz32G-g4UVux2b0yr--52" value="" style="endArrow=classic;html=1;rounded=0;strokeWidth=1;fontStyle=0" parent="1" edge="1">
          <mxGeometry width="50" height="50" relative="1" as="geometry">
            <mxPoint x="-740" y="560" as="sourcePoint" />
            <mxPoint x="-465" y="560" as="targetPoint" />
          </mxGeometry>
        </mxCell>
        <mxCell id="g2Wz32G-g4UVux2b0yr--53" value="" style="endArrow=none;html=1;rounded=0;strokeWidth=1;fontStyle=0" parent="1" edge="1">
          <mxGeometry width="50" height="50" relative="1" as="geometry">
            <mxPoint x="-741" y="560" as="sourcePoint" />
            <mxPoint x="-740.95" y="130" as="targetPoint" />
          </mxGeometry>
        </mxCell>
        <mxCell id="g2Wz32G-g4UVux2b0yr--54" value="" style="endArrow=classic;html=1;rounded=0;strokeWidth=1;fontStyle=0" parent="1" edge="1">
          <mxGeometry width="50" height="50" relative="1" as="geometry">
            <mxPoint x="-362.5" y="562.8333333333335" as="sourcePoint" />
            <mxPoint x="-212.5" y="562.8333333333335" as="targetPoint" />
          </mxGeometry>
        </mxCell>
        <mxCell id="g2Wz32G-g4UVux2b0yr--55" value="" style="endArrow=classic;html=1;rounded=0;strokeWidth=1;fontStyle=0" parent="1" edge="1">
          <mxGeometry width="50" height="50" relative="1" as="geometry">
            <mxPoint x="-250" y="602" as="sourcePoint" />
            <mxPoint x="-370" y="602" as="targetPoint" />
            <Array as="points">
              <mxPoint x="-202.5" y="602" />
            </Array>
          </mxGeometry>
        </mxCell>
        <mxCell id="g2Wz32G-g4UVux2b0yr--56" value="" style="endArrow=none;html=1;rounded=0;strokeWidth=1;fontStyle=0" parent="1" edge="1">
          <mxGeometry width="50" height="50" relative="1" as="geometry">
            <mxPoint x="-197.5" y="601" as="sourcePoint" />
            <mxPoint x="-77.5" y="601" as="targetPoint" />
          </mxGeometry>
        </mxCell>
        <mxCell id="g2Wz32G-g4UVux2b0yr--57" value="" style="endArrow=none;html=1;rounded=0;strokeWidth=1;fontStyle=0" parent="1" edge="1">
          <mxGeometry width="50" height="50" relative="1" as="geometry">
            <mxPoint x="-197.5" y="560" as="sourcePoint" />
            <mxPoint x="-77.5" y="561" as="targetPoint" />
          </mxGeometry>
        </mxCell>
        <mxCell id="g2Wz32G-g4UVux2b0yr--58" value="Cart Master" style="text;html=1;strokeColor=none;fillColor=none;align=center;verticalAlign=middle;whiteSpace=wrap;rounded=0;strokeWidth=1;fontStyle=0" parent="1" vertex="1">
          <mxGeometry x="-200" y="565" width="100" height="30" as="geometry" />
        </mxCell>
        <mxCell id="g2Wz32G-g4UVux2b0yr--59" value="5.0" style="text;html=1;strokeColor=none;fillColor=none;align=center;verticalAlign=middle;whiteSpace=wrap;rounded=0;strokeWidth=1;fontStyle=0" parent="1" vertex="1">
          <mxGeometry x="-445" y="520" width="60" height="30" as="geometry" />
        </mxCell>
        <mxCell id="g2Wz32G-g4UVux2b0yr--62" value="" style="endArrow=none;html=1;rounded=0;strokeWidth=1;fontStyle=0;" parent="1" edge="1">
          <mxGeometry width="50" height="50" relative="1" as="geometry">
            <mxPoint x="-770" y="700" as="sourcePoint" />
            <mxPoint x="-773" y="130" as="targetPoint" />
          </mxGeometry>
        </mxCell>
        <mxCell id="g2Wz32G-g4UVux2b0yr--63" value="" style="endArrow=classic;html=1;rounded=0;strokeWidth=1;fontStyle=0;entryX=0.014;entryY=0.375;entryDx=0;entryDy=0;entryPerimeter=0;" parent="1" target="g2Wz32G-g4UVux2b0yr--64" edge="1">
          <mxGeometry width="50" height="50" relative="1" as="geometry">
            <mxPoint x="-770" y="700" as="sourcePoint" />
            <mxPoint x="-484.5" y="698.13" as="targetPoint" />
          </mxGeometry>
        </mxCell>
        <mxCell id="g2Wz32G-g4UVux2b0yr--64" value="Add to Whistlist" style="ellipse;whiteSpace=wrap;html=1;aspect=fixed;strokeWidth=1;fontStyle=0" parent="1" vertex="1">
          <mxGeometry x="-466.25" y="660" width="106.25" height="106.25" as="geometry" />
        </mxCell>
        <mxCell id="g2Wz32G-g4UVux2b0yr--65" value="" style="endArrow=none;html=1;rounded=0;entryX=0.966;entryY=0.377;entryDx=0;entryDy=0;entryPerimeter=0;exitX=0.032;exitY=0.389;exitDx=0;exitDy=0;exitPerimeter=0;strokeWidth=1;fontStyle=0" parent="1" edge="1">
          <mxGeometry width="50" height="50" relative="1" as="geometry">
            <mxPoint x="-463" y="694" as="sourcePoint" />
            <mxPoint x="-365" y="693" as="targetPoint" />
          </mxGeometry>
        </mxCell>
        <mxCell id="g2Wz32G-g4UVux2b0yr--66" value="6.0" style="text;html=1;strokeColor=none;fillColor=none;align=center;verticalAlign=middle;whiteSpace=wrap;rounded=0;strokeWidth=1;fontStyle=0" parent="1" vertex="1">
          <mxGeometry x="-443.12" y="665" width="60" height="30" as="geometry" />
        </mxCell>
        <mxCell id="g2Wz32G-g4UVux2b0yr--67" value="" style="endArrow=classic;html=1;rounded=0;strokeWidth=1;fontStyle=0" parent="1" edge="1">
          <mxGeometry width="50" height="50" relative="1" as="geometry">
            <mxPoint x="-363" y="693.74" as="sourcePoint" />
            <mxPoint x="-213" y="693.74" as="targetPoint" />
          </mxGeometry>
        </mxCell>
        <mxCell id="g2Wz32G-g4UVux2b0yr--68" value="" style="endArrow=classic;html=1;rounded=0;strokeWidth=1;fontStyle=0" parent="1" edge="1">
          <mxGeometry width="50" height="50" relative="1" as="geometry">
            <mxPoint x="-243" y="733.74" as="sourcePoint" />
            <mxPoint x="-363" y="733.74" as="targetPoint" />
            <Array as="points">
              <mxPoint x="-203" y="733.74" />
            </Array>
          </mxGeometry>
        </mxCell>
        <mxCell id="g2Wz32G-g4UVux2b0yr--69" value="" style="endArrow=none;html=1;rounded=0;strokeWidth=1;fontStyle=0" parent="1" edge="1">
          <mxGeometry width="50" height="50" relative="1" as="geometry">
            <mxPoint x="-200" y="735.54" as="sourcePoint" />
            <mxPoint x="-80" y="735.54" as="targetPoint" />
          </mxGeometry>
        </mxCell>
        <mxCell id="g2Wz32G-g4UVux2b0yr--70" value="" style="endArrow=none;html=1;rounded=0;strokeWidth=1;fontStyle=0" parent="1" edge="1">
          <mxGeometry width="50" height="50" relative="1" as="geometry">
            <mxPoint x="-200" y="690" as="sourcePoint" />
            <mxPoint x="-80" y="691" as="targetPoint" />
          </mxGeometry>
        </mxCell>
        <mxCell id="g2Wz32G-g4UVux2b0yr--73" value="Add to cart" style="text;html=1;strokeColor=none;fillColor=none;align=center;verticalAlign=middle;whiteSpace=wrap;rounded=0;strokeWidth=1;fontStyle=0" parent="1" vertex="1">
          <mxGeometry x="-445" y="565" width="60" height="30" as="geometry" />
        </mxCell>
        <mxCell id="g2Wz32G-g4UVux2b0yr--74" value="Check For Login" style="text;html=1;strokeColor=none;fillColor=none;align=center;verticalAlign=middle;whiteSpace=wrap;rounded=0;strokeWidth=1;fontStyle=0" parent="1" vertex="1">
          <mxGeometry x="-369.5" y="40" width="155" height="30" as="geometry" />
        </mxCell>
        <mxCell id="g2Wz32G-g4UVux2b0yr--75" value="Response" style="text;html=1;strokeColor=none;fillColor=none;align=center;verticalAlign=middle;whiteSpace=wrap;rounded=0;strokeWidth=1;fontStyle=0" parent="1" vertex="1">
          <mxGeometry x="-317.5" y="130" width="60" height="30" as="geometry" />
        </mxCell>
        <mxCell id="g2Wz32G-g4UVux2b0yr--76" value="Response" style="text;html=1;strokeColor=none;fillColor=none;align=center;verticalAlign=middle;whiteSpace=wrap;rounded=0;strokeWidth=1;fontStyle=0" parent="1" vertex="1">
          <mxGeometry x="-560" y="120" width="60" height="30" as="geometry" />
        </mxCell>
        <mxCell id="g2Wz32G-g4UVux2b0yr--77" value="Response" style="text;html=1;strokeColor=none;fillColor=none;align=center;verticalAlign=middle;whiteSpace=wrap;rounded=0;strokeWidth=1;fontStyle=0" parent="1" vertex="1">
          <mxGeometry x="-570" y="240" width="60" height="30" as="geometry" />
        </mxCell>
        <mxCell id="g2Wz32G-g4UVux2b0yr--78" value="Response" style="text;html=1;strokeColor=none;fillColor=none;align=center;verticalAlign=middle;whiteSpace=wrap;rounded=0;strokeWidth=1;fontStyle=0" parent="1" vertex="1">
          <mxGeometry x="-319" y="240" width="60" height="30" as="geometry" />
        </mxCell>
        <mxCell id="g2Wz32G-g4UVux2b0yr--82" value="Response" style="text;html=1;strokeColor=none;fillColor=none;align=center;verticalAlign=middle;whiteSpace=wrap;rounded=0;strokeWidth=1;fontStyle=0" parent="1" vertex="1">
          <mxGeometry x="-650" y="600" width="60" height="30" as="geometry" />
        </mxCell>
        <mxCell id="g2Wz32G-g4UVux2b0yr--83" value="Response" style="text;html=1;strokeColor=none;fillColor=none;align=center;verticalAlign=middle;whiteSpace=wrap;rounded=0;strokeWidth=1;fontStyle=0" parent="1" vertex="1">
          <mxGeometry x="-660" y="728.13" width="60" height="30" as="geometry" />
        </mxCell>
        <mxCell id="g2Wz32G-g4UVux2b0yr--84" value="Request for Item" style="text;html=1;strokeColor=none;fillColor=none;align=center;verticalAlign=middle;whiteSpace=wrap;rounded=0;strokeWidth=1;fontStyle=0" parent="1" vertex="1">
          <mxGeometry x="-600" y="170" width="110" height="30" as="geometry" />
        </mxCell>
        <mxCell id="g2Wz32G-g4UVux2b0yr--85" value="Search for Item" style="text;html=1;strokeColor=none;fillColor=none;align=center;verticalAlign=middle;whiteSpace=wrap;rounded=0;strokeWidth=1;fontStyle=0" parent="1" vertex="1">
          <mxGeometry x="-350" y="170" width="117.5" height="30" as="geometry" />
        </mxCell>
        <mxCell id="g2Wz32G-g4UVux2b0yr--86" value="Request for PlaceOrder" style="text;html=1;strokeColor=none;fillColor=none;align=center;verticalAlign=middle;whiteSpace=wrap;rounded=0;strokeWidth=1;fontStyle=0" parent="1" vertex="1">
          <mxGeometry x="-640" y="290" width="140" height="30" as="geometry" />
        </mxCell>
        <mxCell id="g2Wz32G-g4UVux2b0yr--92" value="Response" style="text;html=1;strokeColor=none;fillColor=none;align=center;verticalAlign=middle;whiteSpace=wrap;rounded=0;strokeWidth=1;fontStyle=0" parent="1" vertex="1">
          <mxGeometry x="-355" y="600" width="140" height="30" as="geometry" />
        </mxCell>
        <mxCell id="g2Wz32G-g4UVux2b0yr--93" value="Request&amp;nbsp; Add to cart" style="text;html=1;strokeColor=none;fillColor=none;align=center;verticalAlign=middle;whiteSpace=wrap;rounded=0;strokeWidth=1;fontStyle=0" parent="1" vertex="1">
          <mxGeometry x="-710" y="530" width="210" height="30" as="geometry" />
        </mxCell>
        <mxCell id="g2Wz32G-g4UVux2b0yr--94" value="Product Add to cart" style="text;html=1;strokeColor=none;fillColor=none;align=center;verticalAlign=middle;whiteSpace=wrap;rounded=0;strokeWidth=1;fontStyle=0" parent="1" vertex="1">
          <mxGeometry x="-362.5" y="530" width="140" height="30" as="geometry" />
        </mxCell>
        <mxCell id="g2Wz32G-g4UVux2b0yr--95" value="Response" style="text;html=1;strokeColor=none;fillColor=none;align=center;verticalAlign=middle;whiteSpace=wrap;rounded=0;strokeWidth=1;fontStyle=0" parent="1" vertex="1">
          <mxGeometry x="-342.5" y="736.25" width="115" height="30" as="geometry" />
        </mxCell>
        <mxCell id="g2Wz32G-g4UVux2b0yr--96" value="Registration/&lt;br&gt;Login" style="text;html=1;strokeColor=none;fillColor=none;align=center;verticalAlign=middle;whiteSpace=wrap;rounded=0;strokeWidth=1;fontStyle=0" parent="1" vertex="1">
          <mxGeometry x="-445" y="90" width="60" height="30" as="geometry" />
        </mxCell>
        <mxCell id="g2Wz32G-g4UVux2b0yr--97" value="Request for Login" style="text;html=1;align=center;verticalAlign=middle;resizable=0;points=[];autosize=1;strokeColor=none;fillColor=none;strokeWidth=1;fontStyle=0" parent="1" vertex="1">
          <mxGeometry x="-590" y="40" width="120" height="30" as="geometry" />
        </mxCell>
        <mxCell id="g2Wz32G-g4UVux2b0yr--100" value="Request for&amp;nbsp;View&lt;br style=&quot;&quot;&gt;Order" style="text;html=1;align=center;verticalAlign=middle;resizable=0;points=[];autosize=1;strokeColor=none;fillColor=none;strokeWidth=1;fontStyle=0" parent="1" vertex="1">
          <mxGeometry x="-640" y="400" width="110" height="40" as="geometry" />
        </mxCell>
        <mxCell id="g2Wz32G-g4UVux2b0yr--101" value="Response" style="text;html=1;strokeColor=none;fillColor=none;align=center;verticalAlign=middle;whiteSpace=wrap;rounded=0;strokeWidth=1;fontStyle=0" parent="1" vertex="1">
          <mxGeometry x="-610" y="359" width="60" height="30" as="geometry" />
        </mxCell>
        <mxCell id="g2Wz32G-g4UVux2b0yr--102" value="Response" style="text;html=1;strokeColor=none;fillColor=none;align=center;verticalAlign=middle;whiteSpace=wrap;rounded=0;strokeWidth=1;fontStyle=0" parent="1" vertex="1">
          <mxGeometry x="-615" y="480" width="60" height="30" as="geometry" />
        </mxCell>
        <mxCell id="g2Wz32G-g4UVux2b0yr--104" value="Order Detail" style="text;html=1;align=center;verticalAlign=middle;resizable=0;points=[];autosize=1;strokeColor=none;fillColor=none;rotation=22;strokeWidth=1;fontStyle=0" parent="1" vertex="1">
          <mxGeometry x="-325" y="330" width="90" height="30" as="geometry" />
        </mxCell>
        <mxCell id="g2Wz32G-g4UVux2b0yr--106" value="Response" style="text;html=1;align=center;verticalAlign=middle;resizable=0;points=[];autosize=1;strokeColor=none;fillColor=none;rotation=15;strokeWidth=1;fontStyle=0" parent="1" vertex="1">
          <mxGeometry x="-365" y="360" width="80" height="30" as="geometry" />
        </mxCell>
        <mxCell id="g2Wz32G-g4UVux2b0yr--107" value="View Order Detail" style="text;html=1;align=center;verticalAlign=middle;resizable=0;points=[];autosize=1;strokeColor=none;fillColor=none;rotation=-15;strokeWidth=1;fontStyle=0" parent="1" vertex="1">
          <mxGeometry x="-357.5" y="399" width="120" height="30" as="geometry" />
        </mxCell>
        <mxCell id="g2Wz32G-g4UVux2b0yr--108" value="Response" style="text;html=1;align=center;verticalAlign=middle;resizable=0;points=[];autosize=1;strokeColor=none;fillColor=none;rotation=-20;strokeWidth=1;fontStyle=0" parent="1" vertex="1">
          <mxGeometry x="-315" y="440" width="80" height="30" as="geometry" />
        </mxCell>
        <mxCell id="1LVec_njkiTlvFtrmcEw-13" value="Request For Whistlist" style="text;html=1;align=center;verticalAlign=middle;resizable=0;points=[];autosize=1;strokeColor=none;fillColor=none;" parent="1" vertex="1">
          <mxGeometry x="-690" y="668.13" width="140" height="30" as="geometry" />
        </mxCell>
        <mxCell id="1LVec_njkiTlvFtrmcEw-17" value="Whistlist&amp;nbsp; Master" style="text;html=1;strokeColor=none;fillColor=none;align=center;verticalAlign=middle;whiteSpace=wrap;rounded=0;strokeWidth=1;fontStyle=0" parent="1" vertex="1">
          <mxGeometry x="-200" y="698.13" width="100" height="30" as="geometry" />
        </mxCell>
        <mxCell id="1LVec_njkiTlvFtrmcEw-21" value="Product Add to whistlist" style="text;html=1;strokeColor=none;fillColor=none;align=center;verticalAlign=middle;whiteSpace=wrap;rounded=0;strokeWidth=1;fontStyle=0" parent="1" vertex="1">
          <mxGeometry x="-372.5" y="665" width="140" height="30" as="geometry" />
        </mxCell>
        <mxCell id="1LVec_njkiTlvFtrmcEw-28" value="" style="edgeStyle=segmentEdgeStyle;endArrow=classic;html=1;curved=0;rounded=0;endSize=8;startSize=8;exitX=0.055;exitY=0.723;exitDx=0;exitDy=0;exitPerimeter=0;strokeWidth=1;fontStyle=0;entryX=0.327;entryY=1.06;entryDx=0;entryDy=0;entryPerimeter=0;" parent="1" edge="1">
          <mxGeometry width="50" height="50" relative="1" as="geometry">
            <mxPoint x="-464.9950000000001" y="592.3149999999999" as="sourcePoint" />
            <mxPoint x="-754.6000000000001" y="129.99999999999991" as="targetPoint" />
          </mxGeometry>
        </mxCell>
        <mxCell id="1LVec_njkiTlvFtrmcEw-29" value="" style="edgeStyle=segmentEdgeStyle;endArrow=classic;html=1;curved=0;rounded=0;endSize=8;startSize=8;exitX=0.019;exitY=0.649;exitDx=0;exitDy=0;exitPerimeter=0;strokeWidth=1;fontStyle=0;" parent="1" source="g2Wz32G-g4UVux2b0yr--64" edge="1">
          <mxGeometry width="50" height="50" relative="1" as="geometry">
            <mxPoint x="-500.0050000000001" y="712.3149999999999" as="sourcePoint" />
            <mxPoint x="-784" y="130" as="targetPoint" />
            <Array as="points">
              <mxPoint x="-500" y="729" />
              <mxPoint x="-784" y="730" />
            </Array>
          </mxGeometry>
        </mxCell>
        <mxCell id="1LVec_njkiTlvFtrmcEw-31" value="" style="endArrow=classic;html=1;rounded=0;strokeWidth=1;fontStyle=0;entryX=0.961;entryY=0.679;entryDx=0;entryDy=0;entryPerimeter=0;" parent="1" target="g2Wz32G-g4UVux2b0yr--27" edge="1">
          <mxGeometry width="50" height="50" relative="1" as="geometry">
            <mxPoint x="-210" y="400" as="sourcePoint" />
            <mxPoint x="-357.5" y="359" as="targetPoint" />
          </mxGeometry>
        </mxCell>
        <mxCell id="1LVec_njkiTlvFtrmcEw-32" value="" style="endArrow=classic;html=1;rounded=0;strokeWidth=1;fontStyle=0;exitX=0;exitY=1;exitDx=0;exitDy=0;" parent="1" source="g2Wz32G-g4UVux2b0yr--34" edge="1">
          <mxGeometry width="50" height="50" relative="1" as="geometry">
            <mxPoint x="-200" y="430" as="sourcePoint" />
            <mxPoint x="-362.5" y="469" as="targetPoint" />
          </mxGeometry>
        </mxCell>
        <mxCell id="1LVec_njkiTlvFtrmcEw-33" value="" style="endArrow=none;html=1;rounded=0;strokeWidth=1;fontStyle=0;entryX=0.973;entryY=0.333;entryDx=0;entryDy=0;entryPerimeter=0;exitX=0.048;exitY=0.324;exitDx=0;exitDy=0;exitPerimeter=0;" parent="1" source="g2Wz32G-g4UVux2b0yr--4" target="g2Wz32G-g4UVux2b0yr--4" edge="1">
          <mxGeometry width="50" height="50" relative="1" as="geometry">
            <mxPoint x="-450" y="80" as="sourcePoint" />
            <mxPoint x="-380" y="80" as="targetPoint" />
          </mxGeometry>
        </mxCell>
      </root>
    </mxGraphModel>
  </diagram>
  <diagram id="o-guiyzP2e07b2X5fFxi" name="Page-2">
    <mxGraphModel dx="1050" dy="621" grid="1" gridSize="10" guides="1" tooltips="1" connect="1" arrows="1" fold="1" page="1" pageScale="1" pageWidth="850" pageHeight="1100" math="0" shadow="0">
      <root>
        <mxCell id="0" />
        <mxCell id="1" parent="0" />
      </root>
    </mxGraphModel>
  </diagram>
</mxfile>
